name rise44.8762peak52.3436fall86.788.mot
datacolumns 19
datarows 23
range 0.56666400000000 0.61499500000000
endheader
time	ground_force1_vx	ground_force1_vy	ground_force1_vz	ground_force1_px	ground_force1_py	ground_force1_pz	ground_force2_vx	ground_force2_vy	ground_force2_vz	ground_force2_px	ground_force2_py	ground_force2_pz	ground_torque1_x	ground_torque1_y	ground_torque1_z	ground_torque2_x	ground_torque2_y	ground_torque2_z	
0.56666400000000	-41.04226300000000	814.64845400000002	64.28183000000000	0.08922900000000	0.00000000000000	0.10509900000000	-4.10625300000000	20.98242900000000	4.45344100000000	0.00000000000000	0.00000000000000	0.00000000000000	0.00000000000000	19.09014500000000	0.00000000000000	0.00000000000000	1.22007100000000	0.00000000000000	
0.56833000000000	-41.35288100000000	811.37963300000001	64.02344900000000	0.08860700000000	0.00000000000000	0.10510800000000	-4.98179800000000	26.68899200000000	5.45832900000000	0.31829900000000	0.00000000000000	-0.06548900000000	0.00000000000000	18.97774000000000	0.00000000000000	0.00000000000000	2.91376000000000	0.00000000000000	
0.56999400000000	-41.67909300000000	807.96676800000000	63.73280800000000	0.08798800000000	0.00000000000000	0.10511400000000	-5.83960700000000	32.74164600000000	6.46312800000000	0.32247800000000	0.00000000000000	-0.06605800000000	0.00000000000000	18.86646400000000	0.00000000000000	0.00000000000000	3.48614300000000	0.00000000000000	
0.57166500000000	-42.02128600000000	804.41136100000006	63.40981000000000	0.08737300000000	0.00000000000000	0.10511500000000	-6.64802100000000	39.01579900000000	7.43494100000000	0.32624500000000	0.00000000000000	-0.06659000000000	0.00000000000000	18.75650200000000	0.00000000000000	0.00000000000000	4.04929300000000	0.00000000000000	
0.58499800000000	-42.37978100000000	800.71499400000005	63.05441600000000	0.08676000000000	0.00000000000000	0.10511300000000	-7.37828300000000	45.39052500000000	8.34347400000000	0.32965500000000	0.00000000000000	-0.06709100000000	0.00000000000000	18.64802700000000	0.00000000000000	0.00000000000000	4.58597700000000	0.00000000000000	
0.58666600000000	-42.75482700000000	796.87931400000002	62.66664900000000	0.08615000000000	0.00000000000000	0.10510600000000	-8.00641000000000	51.75763500000000	9.16306100000000	0.33275300000000	0.00000000000000	-0.06756700000000	0.00000000000000	18.54120100000000	0.00000000000000	0.00000000000000	5.08121800000000	0.00000000000000	
0.58833100000000	-43.14659700000000	792.90602300000000	62.24658800000000	0.08554200000000	0.00000000000000	0.10509500000000	-8.51447700000000	58.02862500000000	9.87406400000000	0.33557600000000	0.00000000000000	-0.06802200000000	0.00000000000000	18.43617200000000	0.00000000000000	0.00000000000000	5.52317100000000	0.00000000000000	
0.58999500000000	-43.55518800000000	788.79686200000003	61.79437300000000	0.08493600000000	0.00000000000000	0.10507900000000	-8.89121800000000	64.13903000000001	10.46360600000000	0.33815500000000	0.00000000000000	-0.06845800000000	0.00000000000000	18.33307500000000	0.00000000000000	0.00000000000000	5.90361900000000	0.00000000000000	
0.59166400000000	-43.98061900000000	784.55360299999995	61.31020000000000	0.08433200000000	0.00000000000000	0.10505900000000	-9.13201100000000	70.05013099999999	10.92563100000000	0.34051500000000	0.00000000000000	-0.06887900000000	0.00000000000000	18.23203300000000	0.00000000000000	0.00000000000000	6.21810300000000	0.00000000000000	
0.59332500000000	-44.42282200000000	780.17803600000002	60.79432200000000	0.08372900000000	0.00000000000000	0.10503400000000	-9.23830300000000	75.74826100000000	11.26039900000000	0.34268100000000	0.00000000000000	-0.06928600000000	0.00000000000000	18.13315100000000	0.00000000000000	0.00000000000000	6.46571600000000	0.00000000000000	
0.59499500000000	-44.88164800000000	775.67195700000002	60.24704900000000	0.08312700000000	0.00000000000000	0.10500400000000	-9.21665100000000	81.24217899999999	11.47354900000000	0.34466900000000	0.00000000000000	-0.06968200000000	0.00000000000000	18.03652200000000	0.00000000000000	0.00000000000000	6.64864000000000	0.00000000000000	
0.59666200000000	-45.35685800000000	771.03715999999997	59.66874500000000	0.08252500000000	0.00000000000000	0.10496900000000	-9.07749700000000	86.55905400000000	11.57487800000000	0.34649700000000	0.00000000000000	-0.07006700000000	0.00000000000000	17.94222000000000	0.00000000000000	0.00000000000000	6.77151500000000	0.00000000000000	
0.59833100000000	-45.84812500000000	766.27542300000005	59.05982700000000	0.08192400000000	0.00000000000000	0.10492900000000	-8.83383900000000	91.73963300000000	11.57700100000000	0.34817800000000	0.00000000000000	-0.07044400000000	0.00000000000000	17.85030400000000	0.00000000000000	0.00000000000000	6.84070100000000	0.00000000000000	
0.59999300000000	-46.35503100000000	761.38850500000001	58.42076600000000	0.08132400000000	0.00000000000000	0.10488400000000	-8.49992400000000	96.83314200000000	11.49399700000000	0.34972500000000	0.00000000000000	-0.07081300000000	0.00000000000000	17.76081500000000	0.00000000000000	0.00000000000000	6.86354100000000	0.00000000000000	
0.60166400000000	-46.87706500000000	756.37813100000005	57.75208100000000	0.08072300000000	0.00000000000000	0.10483400000000	-8.09006300000000	101.89237600000000	11.34018300000000	0.35114800000000	0.00000000000000	-0.07117600000000	0.00000000000000	17.67377800000000	0.00000000000000	0.00000000000000	6.84766200000000	0.00000000000000	
0.60332800000000	-47.41362300000000	751.24598800000001	57.05434400000000	0.08012200000000	0.00000000000000	0.10477800000000	-7.61763600000000	106.96933500000000	11.12907300000000	0.35245700000000	0.00000000000000	-0.07153200000000	0.00000000000000	17.58920000000000	0.00000000000000	0.00000000000000	6.80037900000000	0.00000000000000	
0.60499300000000	-47.96400800000000	745.99371799999994	56.32817300000000	0.07952100000000	0.00000000000000	0.10471700000000	-7.09435200000000	112.11166200000000	10.87257500000000	0.35366000000000	0.00000000000000	-0.07188200000000	0.00000000000000	17.50706800000000	0.00000000000000	0.00000000000000	6.72822800000000	0.00000000000000	
0.60666600000000	-48.52742500000000	740.62290900000005	55.57423500000000	0.07891800000000	0.00000000000000	0.10465100000000	-6.52975100000000	117.36001300000000	10.58045500000000	0.35476500000000	0.00000000000000	-0.07222800000000	0.00000000000000	17.42735400000000	0.00000000000000	0.00000000000000	6.63663400000000	0.00000000000000	
0.60832500000000	-49.10298700000000	735.13509399999998	54.79324100000000	0.07831400000000	0.00000000000000	0.10458000000000	-5.93096400000000	122.74639100000000	10.26005400000000	0.35577700000000	0.00000000000000	-0.07256900000000	0.00000000000000	17.35000800000000	0.00000000000000	0.00000000000000	6.52973700000000	0.00000000000000	
0.60999600000000	-49.68971100000000	729.53174500000000	53.98594700000000	0.07770900000000	0.00000000000000	0.10450300000000	-5.30269100000000	128.29340800000000	9.91623400000000	0.35670200000000	0.00000000000000	-0.07290500000000	0.00000000000000	17.27496400000000	0.00000000000000	0.00000000000000	6.41033300000000	0.00000000000000	
0.61166500000000	-50.28652000000000	723.81426699999997	53.15315100000000	0.07710300000000	0.00000000000000	0.10442000000000	-4.64736900000000	134.01435300000000	9.55152400000000	0.35754700000000	0.00000000000000	-0.07323800000000	0.00000000000000	17.20213600000000	0.00000000000000	0.00000000000000	6.27994100000000	0.00000000000000	
0.61333300000000	-50.89224300000000	717.98400000000004	52.29569400000000	0.07649400000000	0.00000000000000	0.10433200000000	-3.96547400000000	139.91391600000000	9.16641000000000	0.35831400000000	0.00000000000000	-0.07356700000000	0.00000000000000	17.13142000000000	0.00000000000000	0.00000000000000	6.13894900000000	0.00000000000000	
0.61499500000000	-51.50561800000000	712.04221700000005	51.41445600000000	0.07588400000000	0.00000000000000	0.10423900000000	-3.25591500000000	145.98939100000001	8.75972700000000	0.35900900000000	0.00000000000000	-0.07389300000000	0.00000000000000	17.06269500000000	0.00000000000000	0.00000000000000	5.98681900000000	0.00000000000000	
